<?xml version="1.0" encoding="UTF-8" standalone="no"?>
<!-- Created with Inkscape (http://www.inkscape.org/) -->

<svg
   xmlns:dc="http://purl.org/dc/elements/1.1/"
   xmlns:cc="http://creativecommons.org/ns#"
   xmlns:rdf="http://www.w3.org/1999/02/22-rdf-syntax-ns#"
   xmlns:svg="http://www.w3.org/2000/svg"
   xmlns="http://www.w3.org/2000/svg"
   xmlns:sodipodi="http://sodipodi.sourceforge.net/DTD/sodipodi-0.dtd"
   xmlns:inkscape="http://www.inkscape.org/namespaces/inkscape"
   width="254.42332mm"
   height="46.734646mm"
   viewBox="0 0 254.42332 46.734646"
   version="1.1"
   id="svg8"
   inkscape:version="0.92.4 (5da689c313, 2019-01-14)"
   sodipodi:docname="21cm_global_sig.svg">
  <defs
     id="defs2" />
  <sodipodi:namedview
     id="base"
     pagecolor="#ffffff"
     bordercolor="#666666"
     borderopacity="1.0"
     inkscape:pageopacity="0.0"
     inkscape:pageshadow="2"
     inkscape:zoom="2.8"
     inkscape:cx="487.02185"
     inkscape:cy="88.183864"
     inkscape:document-units="mm"
     inkscape:current-layer="layer1"
     showgrid="false"
     inkscape:window-width="3840"
     inkscape:window-height="2054"
     inkscape:window-x="2293"
     inkscape:window-y="-11"
     inkscape:window-maximized="1" />
  <metadata
     id="metadata5">
    <rdf:RDF>
      <cc:Work
         rdf:about="">
        <dc:format>image/svg+xml</dc:format>
        <dc:type
           rdf:resource="http://purl.org/dc/dcmitype/StillImage" />
        <dc:title></dc:title>
      </cc:Work>
    </rdf:RDF>
  </metadata>
  <g
     inkscape:label="Layer 1"
     inkscape:groupmode="layer"
     id="layer1"
     transform="translate(-43.573565,-140.11315)">
    <path
       style="fill:#000000;stroke-width:1"
       d="m 140.89301,186.74152 c -0.35294,-0.10019 -1.66855,-0.92536 -2.09983,-1.31704 -0.30756,-0.27933 -1.3054,-1.45813 -1.97779,-2.33649 -0.49687,-0.64905 -0.95928,-1.39192 -1.31754,-2.11666 -0.0921,-0.18627 -0.23406,-0.43392 -0.31552,-0.55034 -0.0815,-0.11641 -0.36418,-0.63076 -0.62826,-1.143 -0.26409,-0.51223 -0.51512,-0.98848 -0.55785,-1.05833 -0.12879,-0.2105 -1.35328,-2.79956 -1.35384,-2.86253 0,-0.0322 -0.24794,-0.56517 -0.55033,-1.18448 -0.30241,-0.6193 -0.54982,-1.15327 -0.54982,-1.18658 0,-0.0333 -0.081,-0.21172 -0.18001,-0.39644 -0.099,-0.18472 -0.22863,-0.47369 -0.28807,-0.64215 -0.10282,-0.2914 -0.2391,-0.591 -1.04556,-2.29847 -0.19196,-0.40643 -0.34903,-0.77452 -0.34903,-0.81796 0,-0.0434 -0.32385,-0.73126 -0.71966,-1.52848 -0.39582,-0.79722 -0.71967,-1.48031 -0.71967,-1.51796 0,-0.10454 -1.68445,-3.34327 -1.98725,-3.82095 -0.10332,-0.16298 -0.34607,-0.56303 -0.53944,-0.889 -0.55665,-0.93832 -1.03202,-1.6626 -1.57964,-2.40676 -0.2794,-0.37968 -0.59518,-0.81263 -0.70172,-0.96211 -0.4129,-0.5793 -1.86053,-2.05446 -2.45975,-2.5065 -0.34602,-0.26105 -0.71232,-0.53945 -0.81398,-0.61867 -0.59687,-0.46513 -3.43036,-1.67629 -3.92165,-1.67629 -0.0841,0 -0.38007,-0.0593 -0.65761,-0.13171 -0.81357,-0.21234 -3.24477,-0.28694 -5.79629,-0.17785 -1.29825,0.0555 -4.13636,0.36456 -5.969,0.65 -1.46293,0.22786 -2.15758,0.34219 -2.54001,0.41807 -0.23283,0.0462 -0.59478,0.10326 -0.80433,0.12681 -0.20955,0.0236 -0.601932,0.10069 -0.871962,0.17142 -0.27003,0.0707 -0.569379,0.12859 -0.665219,0.12859 -0.09584,0 -0.427356,0.0565 -0.736703,0.12559 -0.309345,0.0691 -1.172047,0.26117 -1.917114,0.42687 -0.745066,0.16571 -1.469085,0.33686 -1.60893,0.38034 -0.139844,0.0435 -0.520844,0.13464 -0.846666,0.20259 -0.325822,0.0679 -0.801954,0.18154 -1.05807,0.25244 -3.126012,0.86527 -3.198691,0.88726 -5.334,1.61374 -0.90805,0.30894 -1.9367,0.65803 -2.28589,0.77576 -0.349189,0.11772 -0.749239,0.26331 -0.889,0.32352 -0.375837,0.16193 -0.854103,0.34597 -1.566443,0.60277 -0.34925,0.12591 -0.7493,0.27965 -0.889,0.34166 -0.241261,0.10708 -0.73645,0.30386 -2.2225,0.88319 -0.360892,0.14069 -0.732367,0.29228 -0.8255,0.33686 -0.09313,0.0446 -0.464608,0.19617 -0.8255,0.33687 -0.360891,0.14069 -0.951441,0.37091 -1.312333,0.5116 -0.360892,0.1407 -0.732367,0.2916 -0.8255,0.33534 -0.33133,0.15561 -1.700803,0.69323 -2.159,0.84757 -0.256117,0.0863 -1.418167,0.48639 -2.582333,0.88915 -1.164167,0.40276 -2.267566,0.76965 -2.452,0.81531 -0.184434,0.0457 -0.380272,0.12033 -0.435196,0.16591 -0.579324,0.4808 -2.830871,0.80589 -5.748804,0.83007 -1.677517,0.0139 -1.874976,-0.002 -3.493956,-0.27824 -1.308056,-0.22332 -1.861524,-0.35742 -2.328333,-0.56413 -3.012355,-1.33389 -3.819656,-1.78297 -5.808201,-3.23094 -1.068698,-0.77817 -1.900819,-1.45894 -2.965403,-2.42602 -0.390809,-0.35502 -0.780997,-0.69504 -0.867085,-0.7556 -0.08609,-0.0606 -0.349941,-0.31462 -0.58634,-0.56457 -0.236399,-0.24996 -0.960636,-0.94203 -1.609415,-1.53793 l -1.179599,-1.08346 v -1.25858 -1.25858 l 0.862018,0.78995 c 0.474109,0.43447 1.398034,1.30734 2.053166,1.9397 1.50883,1.45638 2.175178,2.07337 3.180816,2.94519 0.442383,0.38351 0.899583,0.78347 1.016,0.88879 0.116416,0.10532 0.439559,0.33716 0.718096,0.5152 0.278536,0.17804 0.678585,0.46656 0.889,0.64117 0.89923,0.74619 3.414457,2.11395 4.869903,2.64822 1.240263,0.45527 3.440749,0.82135 4.937147,0.82135 1.616061,0 4.450021,-0.47813 6.281186,-1.05972 0.34925,-0.11093 0.9398,-0.29713 1.312333,-0.41379 0.372534,-0.11666 1.001184,-0.33019 1.397,-0.47453 0.395817,-0.14433 0.995341,-0.35516 1.332275,-0.46852 0.336934,-0.11335 0.775084,-0.27797 0.973667,-0.36582 0.198582,-0.0878 0.780158,-0.31924 1.292391,-0.51421 0.512234,-0.19496 1.140884,-0.44323 1.397,-0.55172 1.155179,-0.4893 4.556874,-1.82436 4.648421,-1.82436 0.05593,0 0.242596,-0.0745 0.414805,-0.16563 0.524449,-0.27742 3.099922,-1.21174 5.581691,-2.0249 2.865868,-0.93901 3.445319,-1.11333 5.441749,-1.63702 1.428743,-0.37478 2.040081,-0.52548 3.005667,-0.74096 0.186266,-0.0416 0.662516,-0.16048 1.058333,-0.26426 0.395817,-0.10378 0.814917,-0.19912 0.931333,-0.21185 0.116417,-0.0127 0.478367,-0.0855 0.804333,-0.16159 0.767582,-0.17928 1.872099,-0.39289 2.224695,-0.43026 0.15255,-0.0162 0.5145,-0.0854 0.80434,-0.15388 0.28983,-0.0685 0.67823,-0.14949 0.86311,-0.18007 0.18488,-0.0306 0.48968,-0.10394 0.67733,-0.16304 0.69123,-0.2177 1.03554,-0.29216 1.78053,-0.38503 0.4191,-0.0523 1.1049,-0.14971 1.524,-0.21657 0.92269,-0.14722 3.11936,-0.24033 5.79966,-0.24585 1.57892,-0.003 2.1295,0.0261 2.667,0.14216 0.37254,0.0804 1.26789,0.24771 1.98967,0.37172 0.72178,0.12401 1.46473,0.25216 1.651,0.28477 0.28703,0.0503 1.04992,0.36864 1.69333,0.70668 1.17481,0.61724 1.71436,0.98263 2.69024,1.82186 0.45517,0.39143 1.15514,1.05932 1.55549,1.48421 0.70944,0.7529 2.06129,2.47453 2.31594,2.94944 0.0699,0.13027 0.37465,0.62701 0.67733,1.10388 0.30269,0.47686 0.5995,0.96246 0.65958,1.07911 0.0601,0.11664 0.27482,0.49783 0.47719,0.84708 0.47819,0.82526 2.33457,4.47599 2.33457,4.59112 0,0.0487 0.20582,0.51205 0.45739,1.02958 0.25157,0.51753 0.63759,1.34102 0.85783,1.82997 0.22024,0.48895 0.56686,1.2436 0.77027,1.67701 0.20341,0.43341 0.36984,0.80721 0.36984,0.83067 0,0.0235 0.1524,0.36643 0.33867,0.76216 0.18626,0.39573 0.33866,0.7367 0.33866,0.75771 0,0.021 0.1563,0.35213 0.34733,0.73583 0.19103,0.38369 0.39622,0.83097 0.45598,0.99395 0.11479,0.31307 0.91086,2.01139 1.11123,2.37067 0.0649,0.11641 0.33279,0.63076 0.59525,1.143 0.26246,0.51223 0.56713,1.064 0.67704,1.22615 0.10991,0.16215 0.19996,0.3336 0.20011,0.381 0,0.0474 0.15243,0.31478 0.3384,0.59418 0.18597,0.2794 0.33825,0.53467 0.33839,0.56726 0,0.0786 0.51695,0.84887 0.64167,0.95674 0.10379,0.0898 0.71908,0.90123 1.01936,1.34437 0.59466,0.87755 2.04863,1.74903 2.90676,1.74225 0.25858,-0.002 0.62255,-0.0623 0.80882,-0.13389 0.18626,-0.0716 0.43391,-0.15125 0.55033,-0.17701 0.44198,-0.0978 2.77792,-2.66646 3.29417,-3.62239 0.10059,-0.18626 0.29529,-0.51011 0.43266,-0.71966 0.13736,-0.20955 0.27591,-0.43815 0.30787,-0.508 0.0632,-0.13816 0.44269,-0.80412 0.81333,-1.42736 0.362,-0.60873 4.12663,-8.22732 4.12663,-8.35118 0,-0.0283 0.20552,-0.4781 0.4567,-0.99961 0.25118,-0.5215 0.57868,-1.21489 0.72778,-1.54085 0.34173,-0.74709 3.00176,-6.06451 3.26128,-6.51934 0.10628,-0.18626 0.44115,-0.82257 0.74416,-1.414 0.303,-0.59144 0.66603,-1.23914 0.80671,-1.43934 0.14069,-0.20019 0.5045,-0.76404 0.80846,-1.25299 1.79313,-2.88439 2.74717,-4.24659 3.75397,-5.36004 0.31604,-0.34951 0.76511,-0.88845 0.99794,-1.19765 0.41501,-0.55112 1.76704,-1.90624 2.50538,-2.51111 0.20531,-0.16819 0.76152,-0.62539 1.23603,-1.016 1.09464,-0.9011 1.72499,-1.34837 2.31226,-1.6407 0.25612,-0.12749 0.52305,-0.2821 0.59317,-0.34357 0.0701,-0.0615 0.43208,-0.26966 0.80433,-0.46264 0.37226,-0.19298 0.94353,-0.49949 1.2695,-0.68114 0.32597,-0.18164 0.70697,-0.36622 0.84667,-0.41018 0.1397,-0.0439 0.635,-0.21975 1.10066,-0.39065 0.46567,-0.17091 1.01812,-0.35992 1.22767,-0.42002 0.20955,-0.0601 0.55245,-0.18397 0.762,-0.27525 0.41064,-0.17887 2.44605,-0.6828 3.683,-0.91185 0.4191,-0.0776 1.00965,-0.19424 1.31233,-0.25918 0.60801,-0.13046 2.14861,-0.33614 3.13267,-0.41824 0.34925,-0.0291 1.07315,-0.10865 1.60867,-0.17669 1.27918,-0.16255 5.21924,-0.29872 8.55133,-0.29555 3.37905,0.003 9.80795,0.16243 10.75267,0.26629 0.39581,0.0435 1.55786,0.11734 2.58233,0.16406 1.02446,0.0467 2.70086,0.14394 3.72533,0.21604 1.02447,0.0721 2.79612,0.16504 3.937,0.20651 1.14088,0.0415 2.43628,0.1172 2.87867,0.16828 1.25178,0.14455 1.41743,0.16156 2.45533,0.25225 0.53552,0.0468 1.44992,0.1405 2.032,0.20825 0.58208,0.0678 1.61078,0.16706 2.286,0.22068 1.37567,0.10925 3.29584,0.29998 4.191,0.41631 0.59716,0.0776 1.74069,0.18215 4.23333,0.38706 0.74507,0.0612 1.62137,0.15176 1.94734,0.20115 0.32596,0.0494 1.08796,0.12884 1.69333,0.17657 1.50751,0.11886 3.62647,0.31713 4.46739,0.41802 1.097,0.13161 2.2202,0.24906 3.32194,0.34737 0.5588,0.0499 1.45415,0.14267 1.98967,0.20625 1.01267,0.12024 2.04061,0.22656 3.76767,0.3897 0.5588,0.0528 1.07315,0.11461 1.143,0.13738 0.0699,0.0228 0.67945,0.0949 1.35466,0.16035 1.81952,0.17629 2.71332,0.271 3.937,0.41715 0.60537,0.0723 2.03412,0.22926 3.175,0.3488 1.14089,0.11954 2.34104,0.24793 2.667,0.28529 1.64823,0.18896 2.2832,0.2475 3.175,0.29273 0.93606,0.0475 1.32033,0.0897 2.70934,0.29739 0.55914,0.0836 1.66745,0.20758 4.57199,0.51135 0.44239,0.0463 0.89959,0.1026 1.016,0.12519 0.25113,0.0487 2.76147,0.31457 3.00567,0.3183 0.31212,0.005 2.79243,0.2378 2.921,0.27444 0.172,0.049 2.9238,0.30219 3.67359,0.33798 0.86323,0.0412 2.73454,0.18327 3.81941,0.28995 0.79933,0.0786 2.16894,0.17432 5.63033,0.39347 1.76512,0.11176 2.92865,0.19708 3.53484,0.2592 l 0.4445,0.0455 v 0.81031 0.81031 l -3.70417,-0.062 c -2.67825,-0.0449 -3.83314,-0.0943 -4.16983,-0.17841 -0.54441,-0.13604 -2.20514,-0.28893 -3.175,-0.29228 -0.37254,-0.001 -0.94404,-0.0635 -1.27,-0.13813 -0.32597,-0.0747 -0.95462,-0.16437 -1.397,-0.19929 -0.44239,-0.0349 -1.05199,-0.10458 -1.35467,-0.15477 -0.85036,-0.14102 -2.29776,-0.26745 -3.556,-0.31062 -0.62865,-0.0216 -1.54305,-0.0808 -2.032,-0.13162 -1.27926,-0.13295 -1.44754,-0.14786 -2.667,-0.23625 -0.60537,-0.0439 -1.25307,-0.12098 -1.43933,-0.17133 -0.18627,-0.0504 -1.45125,-0.20914 -2.81106,-0.35287 -1.35982,-0.14373 -2.59782,-0.2973 -2.75111,-0.34126 -0.1533,-0.044 -0.48229,-0.0799 -0.73112,-0.0799 -0.24883,0 -0.91583,-0.054 -1.48223,-0.12009 -0.5664,-0.066 -1.46796,-0.16369 -2.00348,-0.21697 -0.53552,-0.0533 -1.23412,-0.13344 -1.55245,-0.17814 -0.31833,-0.0447 -1.36608,-0.15663 -2.32833,-0.24874 -0.96226,-0.0921 -2.0353,-0.20654 -2.38455,-0.25428 -0.6366,-0.087 -1.55785,-0.18283 -3.21734,-0.33458 -0.48895,-0.0447 -1.3843,-0.14073 -1.98966,-0.21337 -1.23628,-0.14836 -2.92004,-0.32488 -4.86834,-0.51039 -0.72178,-0.0687 -1.48378,-0.16124 -1.69333,-0.20558 -0.20955,-0.0444 -0.6858,-0.0994 -1.05833,-0.12223 -0.84412,-0.0519 -3.07062,-0.27132 -4.36034,-0.4298 -0.53551,-0.0658 -1.24036,-0.14163 -1.56633,-0.16851 -1.31886,-0.10873 -4.15988,-0.38783 -4.32398,-0.42478 -0.0964,-0.0217 -0.68697,-0.0793 -1.31233,-0.12802 -1.08652,-0.0846 -3.62731,-0.33064 -5.15869,-0.49954 -0.39582,-0.0437 -1.03496,-0.0996 -1.42032,-0.12426 -0.38537,-0.0247 -1.07117,-0.0845 -1.524,-0.13286 -0.45284,-0.0484 -1.43295,-0.12618 -2.17801,-0.17288 -0.74507,-0.0467 -1.48802,-0.12022 -1.651,-0.16337 -0.16299,-0.0431 -0.88153,-0.10109 -1.59676,-0.12876 -0.71524,-0.0277 -1.32601,-0.0661 -1.35727,-0.0854 -0.0313,-0.0193 -0.83672,-0.077 -1.7899,-0.12829 -0.95319,-0.0512 -2.28552,-0.14766 -2.96074,-0.21425 -0.67522,-0.0666 -1.68487,-0.14309 -2.24367,-0.16999 -0.5588,-0.0269 -2.12089,-0.107 -3.47133,-0.178 -4.94968,-0.26024 -6.18698,-0.29999 -10.795,-0.34678 -5.03612,-0.0511 -7.42194,0.0227 -10.49866,0.32482 -0.95462,0.0937 -1.92617,0.18492 -2.159,0.2026 -0.6711,0.051 -1.24357,0.12988 -1.5951,0.21987 -0.17881,0.0458 -0.65506,0.14091 -1.05833,0.21142 -1.28023,0.22383 -1.47301,0.26376 -2.55357,0.52901 -0.58209,0.14289 -1.32504,0.35934 -1.651,0.48099 -0.32597,0.12166 -0.68792,0.25173 -0.80434,0.28904 -0.11641,0.0373 -0.38463,0.14337 -0.59604,0.23569 -0.21141,0.0923 -0.51621,0.19586 -0.67733,0.23009 -0.29259,0.0622 -2.55028,1.15208 -2.79063,1.34719 -0.0699,0.0567 -0.45085,0.26836 -0.84666,0.47034 -1.29979,0.66325 -2.18014,1.36513 -4.09384,3.26384 -0.75094,0.74506 -1.4852,1.44991 -1.63167,1.56633 -0.26236,0.20851 -1.08428,1.12921 -1.61628,1.81052 -0.14965,0.19166 -0.44316,0.55803 -0.65222,0.81415 -0.39648,0.48572 -1.72575,2.42674 -1.91341,2.794 -0.0595,0.11641 -0.38097,0.63076 -0.7144,1.143 -0.94224,1.44753 -1.31468,2.10464 -2.49536,4.40266 -0.31102,0.60537 -0.62634,1.19592 -0.70069,1.31234 -0.26161,0.40961 -1.43617,2.7618 -1.81794,3.64066 -0.2124,0.48895 -0.51128,1.13665 -0.66418,1.43934 -0.31598,0.62551 -1.23201,2.54008 -1.51909,3.175 -0.10529,0.23283 -0.23453,0.51858 -0.28722,0.635 -0.0527,0.11641 -0.13418,0.27834 -0.18108,0.35983 -0.0469,0.0815 -0.12363,0.21484 -0.1705,0.29633 -0.0469,0.0815 -0.10606,0.20532 -0.13155,0.27517 -0.054,0.14794 -0.41672,0.91682 -1.07844,2.286 -0.25882,0.53552 -0.62573,1.29752 -0.81536,1.69333 -0.31345,0.65428 -0.58622,1.14753 -1.43723,2.59894 -0.15846,0.27027 -0.3682,0.6438 -0.46609,0.83006 -0.0979,0.18627 -0.28542,0.50439 -0.41676,0.70693 -0.13133,0.20255 -0.33757,0.54545 -0.45831,0.762 -0.12073,0.21656 -0.40627,0.63761 -0.63452,0.93567 -0.58517,0.76414 -2.42017,2.69119 -2.77077,2.90975 -0.16129,0.10055 -0.3575,0.24707 -0.43603,0.3256 -0.26943,0.26942 -1.01164,0.41424 -2.07776,0.40541 -0.55164,-0.005 -1.15757,-0.0522 -1.34652,-0.10583 z"
       id="path4544"
       inkscape:connector-curvature="0" />
  </g>
</svg>
